<svg xmlns="http://www.w3.org/2000/svg" xmlns:xlink="http://www.w3.org/1999/xlink" viewBox="0,0,256,256" width="400px" height="400px" fill-rule="nonzero"><g fill="none" fill-rule="nonzero" stroke="none" stroke-width="1" stroke-linecap="butt" stroke-linejoin="miter" stroke-miterlimit="10" stroke-dasharray="" stroke-dashoffset="0" font-family="none" font-weight="none" font-size="none" text-anchor="none" style="mix-blend-mode: normal"><g transform="scale(2.56,2.56)"><path d="M71,82h-42c-6.075,0 -11,-4.925 -11,-11v-42c0,-6.075 4.925,-11 11,-11h42c6.075,0 11,4.925 11,11v42c0,6.075 -4.925,11 -11,11z" fill="#a94437"></path><path d="M64,59c-15.46,0 -28,-12.54 -28,-28c0,-4.69 1.16,-9.11 3.2,-13h-5.54c-1.71,3.99 -2.66,8.38 -2.66,13c0,18.23 14.77,33 33,33c6.64,0 12.83,-1.96 18,-5.34v-6.21c-4.87,4.08 -11.15,6.55 -18,6.55z" fill="#3070b7"></path><path d="M64,54c-12.7,0 -23,-10.3 -23,-23c0,-4.82 1.49,-9.3 4.05,-13h-5.85c-2.04,3.89 -3.2,8.31 -3.2,13c0,15.46 12.54,28 28,28c6.85,0 13.13,-2.47 18,-6.55v-7.15c-4.2,5.3 -10.71,8.7 -18,8.7z" fill="#3a83c1"></path><path d="M64,49c-9.94,0 -18,-8.06 -18,-18h-5c0,12.7 10.3,23 23,23c7.29,0 13.8,-3.4 18,-8.7v-14.3c0,9.94 -8.06,18 -18,18z" fill="#40a6dd"></path><path d="M82,29v2c0,9.94 -8.06,18 -18,18c-9.94,0 -18,-8.06 -18,-18h-4v-13h29c3.63,0 6.85,1.76 8.86,4.47c1.34,1.82 2.14,4.08 2.14,6.53z" fill="#31c4f3"></path><path d="M58.5,48.5c1.708,-9.997 -0.367,-13.745 -4,-21l0.303,-0.398l-11.976,-9.102h-13.709c-6.079,0 -11.006,4.931 -11,11.01l0.015,16.33l8,8.649l0.367,-0.252c6.439,3.942 11,4.763 15.5,4.763c4.51,0 7.567,-1.38 9.5,-2c-9.602,-5.828 -21,-23 -21,-23c0,0 13.849,10.15 18,13c-2.335,-2.333 -9.664,-11.854 -12,-16c3.244,3.758 18.108,15.409 22,18z" fill="#31c4f3"></path><path d="M26.5,53.737c6.439,3.942 11,4.763 15.5,4.763c4.51,0 7.567,-1.38 9.5,-2c-9.602,-5.828 -21,-23 -21,-23c0,0 13.849,10.15 18,13c-2.335,-2.333 -9.664,-11.854 -12,-16c3.244,3.758 18.108,15.409 22,18c0,0 1,-2 1,-6c0,-8 -5,-15 -5,-15l0.303,-0.398l-12.5,-9.5l-3.948,0.041c0.463,1.698 0.729,3.512 0.729,5.441c0,1.511 -0.167,2.909 -0.485,4.216l-8.824,-4.412c-3.097,0.88 -5.58,3.215 -6.669,6.219l8.06,8.06c-3.195,1.741 -7.681,2.917 -12.083,2.917c-0.322,0 -0.641,-0.025 -0.962,-0.038l0.011,5.295l8,8.649l0.368,-0.253c0,0 0,0.001 0,0c0,0.001 0,0 0,0z" fill="#40a6dd"></path><path d="M33.444,35.653c4.301,3.141 12.113,8.827 15.056,10.847c-2.191,-2.189 -8.778,-10.705 -11.512,-15.173c-0.773,1.345 -1.745,2.588 -2.909,3.752c-0.195,0.195 -0.409,0.386 -0.635,0.574z" fill="#40a6dd"></path><path d="M43.423,40.387c-0.421,0.524 -0.867,1.037 -1.357,1.532c2.636,1.904 5.064,3.64 6.434,4.581c-1.018,-1.018 -2.987,-3.403 -5.077,-6.113z" fill="#3a83c1"></path><path d="M38.636,44.322c-3.16,1.608 -7.438,2.678 -11.636,2.678c-3.004,0 -5.956,-0.591 -8.771,-1.556l7.904,8.545l0.367,-0.252c6.439,3.942 11,4.763 15.5,4.763c4.51,0 7.567,-1.38 9.5,-2c-4.326,-2.626 -9.015,-7.554 -12.864,-12.178z" fill="#3a83c1"></path><path d="M54.5,27.5l0.303,-0.398l-11.233,-8.537c2.053,3.165 3.43,7.004 3.43,11.435c0,1.505 -0.166,2.897 -0.481,4.199l-8.649,-4.679c-0.23,0.56 -0.48,1.1 -0.77,1.62c0.002,0.003 0.003,0.011 0.006,0.014c1.606,1.658 4.602,4.248 7.894,6.95v0c5.247,4.306 11.233,8.887 13.5,10.396c1.708,-9.997 -0.367,-13.745 -4,-21z" fill="#3a83c1"></path><path d="M34,53c-3.813,0 -7.544,-0.942 -11.012,-2.411l3.145,3.4l0.367,-0.252c6.439,3.942 11,4.763 15.5,4.763c4.51,0 7.567,-1.38 9.5,-2c-2.271,-1.379 -4.643,-3.396 -6.94,-5.667c-3.02,1.321 -6.823,2.167 -10.56,2.167z" fill="#3070b7"></path><path d="M54.5,27.5l0.303,-0.398l-5.279,-4.012c2.617,3.42 4.476,7.764 4.476,12.91c0,1.765 -0.233,3.373 -0.667,4.861l-7.543,-4.401c-0.24,0.56 -0.5,1.11 -0.8,1.64c2.372,1.944 4.894,3.947 7.155,5.694c2.746,2.124 5.111,3.878 6.355,4.706c1.708,-9.997 -0.367,-13.745 -4,-21z" fill="#3070b7"></path><path d="M30.5,33.5c0,0 11.398,17.172 21,23c-1.933,0.62 -4.99,2 -9.5,2c-4.5,0 -9.061,-0.821 -15.5,-4.763c3.394,4.645 9.323,14.023 23.5,13.763c0.454,-0.008 0.916,-0.026 1.387,-0.054c5.32,-0.259 8.564,-2.15 11.549,-3.315c0.868,-0.339 1.723,-0.608 2.564,-0.615c2,-0.016 3.252,0.859 5,3.984c0,0 0.999,-1 0.999,-3.5c0,-2.774 -1.07,-5.484 -3.999,-8.5c0,0 1,-2 1,-6c0,-6 -2.366,-14.5 -14,-22c0,0 5,7 5,15c0,4 -1,6 -1,6c-3.892,-2.591 -18.756,-14.242 -22,-18c2.336,4.147 9.665,13.667 12,16c-4.152,-2.85 -18,-13 -18,-13z" fill="#444445"></path><path d="M71,83h-42c-6.617,0 -12,-5.383 -12,-12v-42c0,-6.617 5.383,-12 12,-12h42c6.617,0 12,5.383 12,12v42c0,6.617 -5.383,12 -12,12zM29,19c-5.514,0 -10,4.486 -10,10v42c0,5.514 4.486,10 10,10h42c5.514,0 10,-4.486 10,-10v-42c0,-5.514 -4.486,-10 -10,-10z" fill="#1f212b"></path><path d="M67.5,78h-35c-5.79,0 -10.5,-4.71 -10.5,-10.5v-35c0,-5.79 4.71,-10.5 10.5,-10.5h34c0.276,0 0.5,0.224 0.5,0.5c0,0.276 -0.224,0.5 -0.5,0.5h-34c-5.238,0 -9.5,4.262 -9.5,9.5v35c0,5.238 4.262,9.5 9.5,9.5h35c5.238,0 9.5,-4.262 9.5,-9.5v-18c0,-0.276 0.224,-0.5 0.5,-0.5c0.276,0 0.5,0.224 0.5,0.5v18c0,5.79 -4.71,10.5 -10.5,10.5z" fill="#1f212b"></path><path d="M77.5,40c-0.276,0 -0.5,-0.224 -0.5,-0.5v-2c0,-0.276 0.224,-0.5 0.5,-0.5c0.276,0 0.5,0.224 0.5,0.5v2c0,0.276 -0.224,0.5 -0.5,0.5z" fill="#1f212b"></path><path d="M77.5,47c-0.276,0 -0.5,-0.224 -0.5,-0.5v-4c0,-0.276 0.224,-0.5 0.5,-0.5c0.276,0 0.5,0.224 0.5,0.5v4c0,0.276 -0.224,0.5 -0.5,0.5z" fill="#1f212b"></path><path d="M49.415,68.006c-13.25,0 -19.179,-8.23 -22.743,-13.178l-0.576,-0.796c-0.141,-0.192 -0.125,-0.458 0.036,-0.634c0.163,-0.175 0.425,-0.211 0.629,-0.088c6.731,4.122 11.302,4.69 15.239,4.69c3.695,0 6.361,-0.937 8.307,-1.62c0.016,-0.006 0.032,-0.012 0.048,-0.018c-9.372,-6.258 -19.818,-21.902 -20.272,-22.586c-0.134,-0.202 -0.104,-0.471 0.071,-0.638c0.175,-0.169 0.445,-0.186 0.641,-0.042c0.111,0.081 9.001,6.596 14.621,10.615c-3.155,-3.872 -7.593,-9.844 -9.352,-12.967c-0.126,-0.224 -0.062,-0.507 0.148,-0.654c0.211,-0.148 0.499,-0.11 0.666,0.082c3.115,3.608 16.924,14.459 21.385,17.561c0.28,-0.823 0.737,-2.575 0.737,-5.233c0,-7.75 -4.858,-14.641 -4.907,-14.709c-0.14,-0.195 -0.121,-0.463 0.045,-0.636c0.166,-0.175 0.431,-0.206 0.633,-0.075c9.441,6.086 14.229,13.63 14.229,22.42c0,3.195 -0.622,5.155 -0.911,5.893c2.666,2.824 3.91,5.566 3.91,8.607c0,2.676 -1.099,3.807 -1.146,3.854c-0.11,0.111 -0.267,0.163 -0.422,0.142c-0.155,-0.021 -0.292,-0.114 -0.368,-0.251c-1.773,-3.169 -2.949,-3.748 -4.559,-3.728c-0.811,0.007 -1.662,0.297 -2.386,0.58c-0.579,0.226 -1.167,0.479 -1.779,0.742c-2.605,1.122 -5.558,2.394 -9.928,2.605c-0.472,0.029 -0.941,0.047 -1.401,0.056c-0.2,0.004 -0.399,0.005 -0.595,0.006zM28.283,55.347c3.59,4.892 9.52,11.915 21.708,11.653c0.447,-0.009 0.903,-0.025 1.367,-0.054c4.195,-0.204 7.059,-1.438 9.586,-2.525c0.623,-0.269 1.222,-0.526 1.811,-0.756c0.81,-0.316 1.769,-0.641 2.742,-0.648c2.112,-0.005 3.432,0.888 5.021,3.519c0.23,-0.5 0.481,-1.324 0.481,-2.535c0,-2.851 -1.226,-5.441 -3.858,-8.151c-0.147,-0.152 -0.183,-0.381 -0.089,-0.571c0.01,-0.02 0.948,-1.97 0.948,-5.779c0,-7.81 -3.978,-14.616 -11.831,-20.26c1.511,2.679 3.831,7.699 3.831,13.26c0,4.071 -1.01,6.138 -1.053,6.224c-0.064,0.128 -0.18,0.223 -0.319,0.26c-0.139,0.034 -0.287,0.012 -0.406,-0.067c-3.062,-2.038 -13.313,-9.992 -18.948,-15.027c3.155,4.558 7.865,10.545 9.579,12.258c0.183,0.183 0.196,0.475 0.031,0.673c-0.165,0.197 -0.455,0.239 -0.668,0.093c-3.054,-2.096 -11.437,-8.203 -15.601,-11.245c3.526,4.94 11.91,16.015 19.144,20.405c0.167,0.102 0.26,0.292 0.237,0.486c-0.023,0.194 -0.157,0.357 -0.344,0.418c-0.309,0.099 -0.646,0.217 -1.014,0.347c-1.9,0.666 -4.772,1.675 -8.638,1.675c-3.67,0 -7.866,-0.473 -13.717,-3.653z" fill="#1f212b"></path></g></g></svg>